# xmcd CD database file
#
# Track frame offsets:
#	150
#	16500
#	37800
#	55112
#	74542
#	96600
#	114170
#	134782
#	153262
#	175537
#
# Disc length: 2571 seconds
#
# Revision: 3
# Processed by: cddbd v1.5.2PL0 Copyright (c) Steve Scherf et al.
# Submitted via: CDex 1.70beta2
#
DISCID=790a090a
DTITLE=Cusco - Desert Island
DYEAR=1981
DGENRE=New Age
TTITLE0=Desert Island
TTITLE1=Lampedusa
TTITLE2=Helgoland
TTITLE3=Catalina
TTITLE4=Straits of Hormuz
TTITLE5=Galapagos
TTITLE6=Alcatraz
TTITLE7=Hokkaido
TTITLE8=Herrenchiemsee
TTITLE9=Ireland
EXTD=YEAR: 1981
EXTT0=
EXTT1=
EXTT2=
EXTT3=
EXTT4=
EXTT5=
EXTT6=
EXTT7=
EXTT8=
EXTT9=
PLAYORDER=
